<?xml version="1.0" encoding="UTF-8" standalone="no"?>
<svg
   xmlns:dc="http://purl.org/dc/elements/1.1/"
   xmlns:cc="http://creativecommons.org/ns#"
   xmlns:rdf="http://www.w3.org/1999/02/22-rdf-syntax-ns#"
   xmlns:svg="http://www.w3.org/2000/svg"
   xmlns="http://www.w3.org/2000/svg"
   xmlns:sodipodi="http://sodipodi.sourceforge.net/DTD/sodipodi-0.dtd"
   xmlns:inkscape="http://www.inkscape.org/namespaces/inkscape"
   width="100%"
   height="100%"
   viewBox="0 0 500 500"
   version="1.1"
   xml:space="preserve"
   style="fill-rule:evenodd;clip-rule:evenodd;stroke-linecap:round;stroke-linejoin:round;stroke-miterlimit:1.5;"
   id="svg27"
   sodipodi:docname="COMISSION.svg"
   inkscape:version="0.92.4 (5da689c313, 2019-01-14)"><metadata
     id="metadata33"><rdf:RDF><cc:Work
         rdf:about=""><dc:format>image/svg+xml</dc:format><dc:type
           rdf:resource="http://purl.org/dc/dcmitype/StillImage" /><dc:title /></cc:Work></rdf:RDF></metadata><defs
     id="defs31" /><sodipodi:namedview
     pagecolor="#ffffff"
     bordercolor="#666666"
     borderopacity="1"
     objecttolerance="10"
     gridtolerance="10"
     guidetolerance="10"
     inkscape:pageopacity="0"
     inkscape:pageshadow="2"
     inkscape:window-width="1920"
     inkscape:window-height="966"
     id="namedview29"
     showgrid="false"
     inkscape:zoom="1.1115719"
     inkscape:cx="41.767096"
     inkscape:cy="224.56068"
     inkscape:window-x="0"
     inkscape:window-y="27"
     inkscape:window-maximized="1"
     inkscape:current-layer="COMISSION" /><g
     id="COMISSION"><path
       d="M81.313,297.06l0,24.59"
       style="fill:none;stroke:#001d60;stroke-width:15px;"
       id="path10" /><path
       d="M113.816,306.708l84.903,0l66.687,47.182c26.33,23.072 6.527,53.361 -22.61,40.695l-45.828,-28.458"
       style="fill:none;stroke:#001d60;stroke-width:15px;"
       id="path12" /><path
       d="M265.575,47.803c33.412,-31.103 100.235,-31.103 133.647,-0.608c33.413,30.495 43.317,98.07 0,152.475c-34.066,42.786 -83.529,91.485 -133.647,121.98c-50.118,-30.495 -98.371,-78.768 -133.647,-121.98c-43.978,-53.871 -33.412,-121.98 0,-152.475c33.412,-30.495 100.235,-30.495 133.647,0.608Z"
       style="fill:none;stroke:#001d60;stroke-width:15px;"
       id="path14" /><path
       d="M29.141,297.06l84.675,0l0,127.729l-84.735,0"
       style="fill:none;stroke:#001d60;stroke-width:15px;"
       id="path16" /><path
       d="M113.816,417.585l30.131,0l80.54,39.009c14.185,6.511 27.746,4.428 40.957,-2.481l156.966,-93.188c18.97,-13.058 12.711,-37.555 -13.567,-34.098l-143.399,25.313"
       style="fill:none;stroke:#001d60;stroke-width:15px;"
       id="path18" /><ellipse
       cx="52.471"
       cy="328.236"
       rx="12.178"
       ry="12.185"
       style="fill:none;stroke:#001d60;stroke-width:15px;"
       id="ellipse20" /><path
       d="M81.313,424.789l0,-72.649"
       style="fill:none;stroke:#001d60;stroke-width:15px;"
       id="path22" /><g
       aria-label="£"
       style="font-size:171.62399292px;font-family:GothamRounded-Book, 'Gotham Rounded';fill:#001d60;stroke:#001d60;stroke-width:1px;stroke-linecap:butt;stroke-miterlimit:1.41420996"
       id="text24"
       transform="translate(0,8)"><path
         d="m 215.90331,207.72741 c 0,2.40273 1.88787,4.2906 4.46223,4.2906 h 79.80516 c 3.26085,0 6.17846,-2.57436 6.17846,-6.00684 0,-3.26086 -2.91761,-6.00684 -6.17846,-6.00684 h -55.60618 v -38.6154 h 42.73438 c 3.26085,0 6.00684,-2.57436 6.00684,-5.83522 0,-3.26085 -2.74599,-6.00684 -6.00684,-6.00684 h -42.73438 v -18.53539 c 0,-9.43932 2.57436,-16.99077 7.37983,-21.96787 4.2906,-4.11898 9.78257,-6.35009 16.81915,-6.35009 11.49881,0 18.19215,4.80547 24.37061,11.84206 1.02975,1.02974 2.57436,2.23111 4.9771,2.23111 3.77573,0 6.69333,-2.74598 6.69333,-6.52171 0,-2.05949 -0.85812,-3.60411 -2.05948,-4.9771 -7.55146,-8.581198 -17.50565,-15.10291 -33.80993,-15.10291 -11.32718,0 -20.59488,3.775728 -27.11659,10.29744 -7.03659,7.03658 -10.81231,17.8489 -10.81231,30.54907 v 18.53539 h -9.09608 c -3.26085,0 -6.00684,2.74599 -6.00684,6.00684 0,3.26086 2.74599,5.83522 6.00684,5.83522 h 9.09608 v 39.13027 l -11.67044,2.91761 c -2.23111,0.68649 -3.43248,2.40273 -3.43248,4.2906 z"
         style="font-size:171.62399292px;font-family:GothamRounded-Book, 'Gotham Rounded';fill:#001d60;stroke:#001d60;stroke-width:1px;stroke-linecap:butt;stroke-miterlimit:1.41420996"
         id="path885"
         inkscape:connector-curvature="0" /></g></g></svg>