<?xml version="1.0" encoding="UTF-8" standalone="no"?>
<svg
   xmlns:dc="http://purl.org/dc/elements/1.1/"
   xmlns:cc="http://creativecommons.org/ns#"
   xmlns:rdf="http://www.w3.org/1999/02/22-rdf-syntax-ns#"
   xmlns:svg="http://www.w3.org/2000/svg"
   xmlns="http://www.w3.org/2000/svg"
   xmlns:sodipodi="http://sodipodi.sourceforge.net/DTD/sodipodi-0.dtd"
   xmlns:inkscape="http://www.inkscape.org/namespaces/inkscape"
   width="100%"
   height="100%"
   viewBox="0 0 500 500"
   version="1.1"
   xml:space="preserve"
   style="fill-rule:evenodd;clip-rule:evenodd;stroke-linecap:round;stroke-linejoin:round;stroke-miterlimit:1.5;"
   id="svg1004"
   sodipodi:docname="CONVERSION.svg"
   inkscape:version="0.92.4 (5da689c313, 2019-01-14)"><metadata
     id="metadata1010"><rdf:RDF><cc:Work
         rdf:about=""><dc:format>image/svg+xml</dc:format><dc:type
           rdf:resource="http://purl.org/dc/dcmitype/StillImage" /></cc:Work></rdf:RDF></metadata><defs
     id="defs1008" /><sodipodi:namedview
     pagecolor="#ffffff"
     bordercolor="#666666"
     borderopacity="1"
     objecttolerance="10"
     gridtolerance="10"
     guidetolerance="10"
     inkscape:pageopacity="0"
     inkscape:pageshadow="2"
     inkscape:window-width="1920"
     inkscape:window-height="966"
     id="namedview1006"
     showgrid="false"
     inkscape:zoom="1.3350176"
     inkscape:cx="338.90185"
     inkscape:cy="265.55381"
     inkscape:window-x="0"
     inkscape:window-y="27"
     inkscape:window-maximized="1"
     inkscape:current-layer="CONVERSION" /><g
     id="CONVERSION"><path
       d="M403.441,228.371l38.668,38.669l38.668,-38.669"
       style="fill:none;stroke:#001d60;stroke-width:15px;"
       id="path991" /><path
       d="M19.223,268.903l34.709,-34.709l36.016,36.016"
       style="fill:none;stroke:#001d60;stroke-width:15px;"
       id="path993" /><ellipse
       cx="248.02"
       cy="250"
       rx="109.156"
       ry="109.595"
       style="fill:none;stroke:#001d60;stroke-width:15px;"
       id="ellipse995" /><g
       aria-label="£"
       style="font-size:190.35899353px;font-family:GothamRounded-Book, 'Gotham Rounded';fill:#001d60;stroke:#001d60;stroke-width:1px;stroke-linecap:butt;stroke-miterlimit:1.41420996"
       id="text997"><path
         d="m 195.91962,310.87802 c 0,2.66502 2.09395,4.75897 4.94933,4.75897 h 88.51693 c 3.61683,0 6.85293,-2.85538 6.85293,-6.66256 0,-3.61682 -3.2361,-6.66257 -6.85293,-6.66257 h -61.67631 v -42.83077 h 47.39939 c 3.61682,0 6.66256,-2.85538 6.66256,-6.47221 0,-3.61682 -3.04574,-6.66256 -6.66256,-6.66256 h -47.39939 v -20.55877 c 0,-10.46975 2.85539,-18.84554 8.18544,-24.36595 4.75897,-4.56862 10.85046,-7.04329 18.65518,-7.04329 12.75405,0 20.17805,5.33006 27.03098,13.13478 1.14215,1.14215 2.85538,2.47466 5.52041,2.47466 4.18789,0 7.424,-3.04574 7.424,-7.23364 0,-2.28431 -0.9518,-3.99754 -2.28431,-5.52041 -8.3758,-9.51795 -19.41662,-16.75159 -37.50072,-16.75159 -12.5637,0 -22.84308,4.1879 -30.07672,11.42154 -7.80472,7.80472 -11.99262,19.79733 -11.99262,33.8839 v 20.55877 h -10.08903 c -3.61682,0 -6.66256,3.04574 -6.66256,6.66256 0,3.61683 3.04574,6.47221 6.66256,6.47221 h 10.08903 v 43.40185 l -12.94441,3.2361 c -2.47467,0.76144 -3.80718,2.66503 -3.80718,4.75898 z"
         style="font-size:190.35899353px;font-family:GothamRounded-Book, 'Gotham Rounded';fill:#001d60;stroke:#001d60;stroke-width:1px;stroke-linecap:butt;stroke-miterlimit:1.41420996"
         id="path1012" /></g><path
       d="M248.02,444.088c-107.12,0 -194.088,-86.968 -194.088,-194.088"
       style="fill:none;stroke:#001d60;stroke-width:15px;"
       id="path999" /><path
       d="M248.02,55.912c107.121,0 194.089,86.968 194.089,194.088"
       style="fill:none;stroke:#001d60;stroke-width:15px;"
       id="path1001" /></g></svg>